:SAMPLES-PER-SECOND 30
:FULLY-SPECIFIED
:DEGREES
506
root  86.9479 39.3382 -4.96071 -148.156 -83.5748 146.839
RightUpLeg  -2.43863 -9.49434 -6.21655
RightLeg  8.09143 2.6267 0.581717
RightFoot  -4.08391 0.0469041 -1.17537
RightToes  -4.65661e-009 0 -3.6325e-017
Spine  5.41276 1.83095 12.2703
Spine1  1.94335 4.55351 -11.841
HEad  6.11959 -7.14036 -6.27546
LeftShoulder1  -0.116441 3.81395 -31.414
LeftArm  3.74522 11.9736 -41.7481
LeftForeArm  22.9862 -21.9455 -3.93918
LeftHand  -0.013192 4.26499 -1.11601
RightShoulder  0.0751661 -3.17089 17.9437
RightArm  14.9692 52.6098 46.4221
RightForeArm  27.2425 28.5057 4.67643
RightHand  -0.326471 4.6932 -4.06661
LeftUpLeg  3.99769 6.15733 1.26178
LeftLeg  -0.390821 9.18544 0.0833416
LeftFoot  -0.642779 0.116955 -1.20383
LeftToes  9.86798e-010 -1.28139e-010 1.4132e-011
507
root  86.9927 39.3436 -4.92787 -144.783 -84.2109 143.4
RightUpLeg  -2.12424 -9.41867 -6.21686
RightLeg  7.68311 1.84219 0.429698
RightFoot  -3.9859 0.0354115 -0.974123
RightToes  -4.65661e-009 0 -3.6325e-017
Spine  6.04058 1.5897 12.8229
Spine1  0.911144 4.4711 -12.8762
HEad  7.56247 -7.83421 -5.24384
LeftShoulder1  -0.0816538 3.7217 -31.3613
LeftArm  4.56008 12.5297 -40.7517
LeftForeArm  21.932 -22.6304 -3.89248
LeftHand  -0.0307896 5.57638 -0.531202
RightShoulder  0.13877 -2.87169 15.7608
RightArm  15.4869 57.9369 46.2256
RightForeArm  27.5678 25.1398 3.93296
RightHand  -0.125128 1.65489 -2.03952
LeftUpLeg  3.94897 6.19047 1.29887
LeftLeg  -0.495528 8.50788 0.0171688
LeftFoot  -0.566605 0.110374 -1.13549
LeftToes  9.86798e-010 -1.28139e-010 1.4132e-011
508
root  87.0228 39.3452 -4.89048 -141.189 -84.7463 139.89
RightUpLeg  -1.91201 -9.63443 -6.29717
RightLeg  7.20844 1.34027 0.586425
RightFoot  -3.83128 0.0453024 -1.10667
RightToes  -4.65661e-009 0 -3.6325e-017
Spine  6.30739 1.61249 13.2969
Spine1  0.227434 4.62324 -13.7642
HEad  8.66316 -8.46428 -4.5628
LeftShoulder1  -0.0954444 3.75804 -31.3487
LeftArm  4.47445 12.575 -40.1653
LeftForeArm  21.3611 -22.3575 -3.94985
LeftHand  -0.0348362 6.49121 0.113297
RightShoulder  0.132938 -2.85353 14.4861
RightArm  16.6059 62.6624 45.1941
RightForeArm  27.4462 21.0748 3.67585
RightHand  0.050704 -0.996757 1.304
LeftUpLeg  3.74563 6.06001 1.25409
LeftLeg  -0.58675 8.01118 0.105671
LeftFoot  -0.444633 0.080391 -0.815028
LeftToes  9.86798e-010 -1.28139e-010 1.4132e-011
509
root  87.0734 39.3416 -4.85074 -132.708 -85.5694 131.388
RightUpLeg  -1.70234 -9.85931 -6.45856
RightLeg  7.06951 0.496531 0.662478
RightFoot  -3.85457 0.0444063 -1.07405
RightToes  -4.65661e-009 0 -3.6325e-017
Spine  6.24937 1.65772 13.4893
Spine1  0.353096 4.78906 -14.2946
HEad  9.53204 -10.2986 -3.53527
LeftShoulder1  0.0190143 3.45313 -31.0712
LeftArm  5.01139 12.3748 -40.0173
LeftForeArm  21.5082 -22.1997 -3.97204
LeftHand  -0.0377267 6.5498 -0.242534
RightShoulder  0.225107 -2.3468 12.66
RightArm  12.125 65.5403 42.1479
RightForeArm  28.2459 16.8938 4.58545
RightHand  0.0904859 -1.46986 2.97795
LeftUpLeg  3.37659 5.7753 1.09257
LeftLeg  -0.315947 7.20639 0.398195
LeftFoot  -0.455424 0.0895586 -0.905306
LeftToes  9.86798e-010 -1.28139e-010 1.4132e-011
510
root  87.0916 39.3478 -4.84913 -124.219 -86.0999 122.994
RightUpLeg  -1.67824 -9.76182 -6.38906
RightLeg  7.01619 -0.302616 0.527161
RightFoot  -3.78604 0.0367636 -0.938393
RightToes  -4.65661e-009 0 -3.6325e-017
Spine  5.94295 1.79643 13.1666
Spine1  0.632755 4.92152 -14.2519
HEad  9.75102 -11.697 -2.80366
LeftShoulder1  -0.00525092 3.51688 -31.3692
LeftArm  4.80147 12.0782 -39.5385
LeftForeArm  21.7611 -21.7995 -4.03801
LeftHand  -0.0357692 6.94047 0.0702312
RightShoulder  0.200006 -2.43621 11.9234
RightArm  9.91791 67.2094 40.606
RightForeArm  30.6198 14.8748 5.20937
RightHand  0.0731491 -2.71753 3.84893
LeftUpLeg  3.0665 5.64749 1.07587
LeftLeg  -0.269043 6.50143 0.518419
LeftFoot  -0.254809 0.0846999 -0.834646
LeftToes  9.86798e-010 -1.28139e-010 1.4132e-011
511
root  87.0967 39.3602 -4.85527 -112.046 -86.6124 110.686
RightUpLeg  -1.11786 -9.74561 -6.36621
RightLeg  6.49837 -1.1874 0.515563
RightFoot  -3.64297 0.0377982 -0.93874
RightToes  -4.65661e-009 0 -3.6325e-017
Spine  5.6516 1.87456 12.2335
Spine1  1.26001 4.86721 -13.4097
HEad  9.67797 -12.3937 -2.33332
LeftShoulder1  -0.111938 3.79959 -31.7141
LeftArm  4.39743 11.8228 -39.336
LeftForeArm  22.6235 -21.2743 -4.11458
LeftHand  -0.0276218 4.98751 -0.106587
RightShoulder  0.157723 -2.64268 11.5717
RightArm  9.65537 67.8975 39.037
RightForeArm  31.8547 14.3432 5.55733
RightHand  0.0906036 -1.9208 3.44209
LeftUpLeg  3.03994 5.76136 1.26328
LeftLeg  -0.120946 5.44823 0.4848
LeftFoot  -0.281311 0.0894218 -0.930025
LeftToes  9.86798e-010 -1.28139e-010 1.4132e-011
